<svg id="Layer_0_Imagen" data-name="Layer 0 Imagen" xmlns="http://www.w3.org/2000/svg" xmlns:xlink="http://www.w3.org/1999/xlink" viewBox="0 0 574.45 259.39"><defs><style>.cls-1{fill:none;}.cls-2{clip-path:url(#clip-path);}.cls-3{clip-path:url(#clip-path-2);}.cls-4{clip-path:url(#clip-path-3);}.cls-5{clip-path:url(#clip-path-4);}.cls-6{clip-path:url(#clip-path-5);}.cls-7{clip-path:url(#clip-path-6);}</style><clipPath id="clip-path" transform="translate(0.13 0.39)"><rect class="cls-1" x="227.6" y="47.17" width="26.12" height="28.13"/></clipPath><clipPath id="clip-path-2" transform="translate(0.13 0.39)"><rect class="cls-1" x="251.54" y="47.17" width="26.13" height="28.13"/></clipPath><clipPath id="clip-path-3" transform="translate(0.13 0.39)"><rect class="cls-1" x="10.41" y="19.54" width="157.5" height="46.25"/></clipPath><clipPath id="clip-path-4" transform="translate(0.13 0.39)"><rect class="cls-1" x="219.12" y="21.19" width="324.67" height="39.67"/></clipPath><clipPath id="clip-path-5" transform="translate(0.13 0.39)"><rect class="cls-1" x="441.53" y="126.29" width="32.76" height="58.06"/></clipPath><clipPath id="clip-path-6" transform="translate(0.13 0.39)"><rect class="cls-1" x="532.83" y="132.41" width="20.77" height="39.67"/></clipPath></defs><title>SMURFITKAPPA l Layout</title><image id="Layer_0_Imagen-2" data-name="Layer 0 Imagen" width="1458" height="885" transform="translate(80.41 24.47) scale(0.24)" xlink:href="SMURFITKAPPA l Layout1.png"/><image id="Layer_0_Imagen-3" data-name="Layer 0 Imagen" width="1653" height="656" transform="translate(129.43 72.38) scale(0.24)" xlink:href="SMURFITKAPPA l Layout2.png"/><image id="Layer_0_Imagen-4" data-name="Layer 0 Imagen" width="399" height="64" transform="translate(312.56 203.72) scale(0.24)" xlink:href="SMURFITKAPPA l Layout3.png"/><image id="Layer_0_Imagen-5" data-name="Layer 0 Imagen" width="487" height="97" transform="translate(148.7 198.38) scale(0.24)" xlink:href="SMURFITKAPPA l Layout4.png"/><image id="Layer_0_Imagen-6" data-name="Layer 0 Imagen" width="399" height="76" transform="translate(311.89 185.97) scale(0.24)" xlink:href="SMURFITKAPPA l Layout5.png"/><image id="Layer_0_Imagen-7" data-name="Layer 0 Imagen" width="398" height="76" transform="translate(201.74 170.31) scale(0.24)" xlink:href="SMURFITKAPPA l Layout6.png"/><image id="Layer_0_Imagen-8" data-name="Layer 0 Imagen" width="397" height="53" transform="translate(312.13 174.42) scale(0.24)" xlink:href="SMURFITKAPPA l Layout7.png"/><image id="Layer_0_Imagen-9" data-name="Layer 0 Imagen" width="398" height="54" transform="translate(312.01 162.75) scale(0.24)" xlink:href="SMURFITKAPPA l Layout8.png"/><image id="Layer_0_Imagen-10" data-name="Layer 0 Imagen" width="400" height="58" transform="translate(311.77 149.83) scale(0.24)" xlink:href="SMURFITKAPPA l Layout9.png"/><image id="Layer_0_Imagen-11" data-name="Layer 0 Imagen" width="398" height="51" transform="translate(312.01 137.09) scale(0.24)" xlink:href="SMURFITKAPPA l Layout10.png"/><image id="Layer_0_Imagen-12" data-name="Layer 0 Imagen" width="355" height="65" transform="translate(211.28 142.58) scale(0.24)" xlink:href="SMURFITKAPPA l Layout11.png"/><image id="Layer_0_Imagen-13" data-name="Layer 0 Imagen" width="401" height="67" transform="translate(200.24 127.92) scale(0.24)" xlink:href="SMURFITKAPPA l Layout12.png"/><image id="Layer_0_Imagen-14" data-name="Layer 0 Imagen" width="398" height="75" transform="translate(312.34 120.99) scale(0.24)" xlink:href="SMURFITKAPPA l Layout13.png"/><image id="Layer_0_Imagen-15" data-name="Layer 0 Imagen" width="398" height="55" transform="translate(312.34 108.39) scale(0.24)" xlink:href="SMURFITKAPPA l Layout14.png"/><image id="Layer_0_Imagen-16" data-name="Layer 0 Imagen" width="221" height="58" transform="translate(244.58 107.63) scale(0.24)" xlink:href="SMURFITKAPPA l Layout15.png"/><image id="Layer_0_Imagen-17" data-name="Layer 0 Imagen" width="93" height="91" transform="translate(384.54 86.55) scale(0.24)" xlink:href="SMURFITKAPPA l Layout16.png"/><image id="Layer_0_Imagen-18" data-name="Layer 0 Imagen" width="302" height="80" transform="translate(312.01 87.19) scale(0.24)" xlink:href="SMURFITKAPPA l Layout17.png"/><image id="Layer_0_Imagen-19" data-name="Layer 0 Imagen" width="130" height="79" transform="translate(266.84 87.31) scale(0.24)" xlink:href="SMURFITKAPPA l Layout18.png"/><image id="Layer_0_Imagen-20" data-name="Layer 0 Imagen" width="872" height="213" transform="translate(36.21 81.52) scale(0.24)" xlink:href="SMURFITKAPPA l Layout19.png"/><g class="cls-2"><image id="Layer_0_Imagen-21" data-name="Layer 0 Imagen" width="385" height="755" transform="translate(229.38 0.62) scale(0.24)" xlink:href="SMURFITKAPPA l Layout20.png"/></g><g class="cls-3"><image id="Layer_0_Imagen-22" data-name="Layer 0 Imagen" width="385" height="755" transform="translate(253.32 0.62) scale(0.24)" xlink:href="SMURFITKAPPA l Layout21.png"/></g><image id="Layer_0_Imagen-23" data-name="Layer 0 Imagen" width="244" height="65" transform="translate(159.24 57.42) scale(0.24)" xlink:href="SMURFITKAPPA l Layout22.png"/><image id="Layer_0_Imagen-24" data-name="Layer 0 Imagen" width="98" height="85" transform="translate(192.77 37.36) scale(0.24)" xlink:href="SMURFITKAPPA l Layout23.png"/><image id="Layer_0_Imagen-25" data-name="Layer 0 Imagen" width="129" height="76" transform="translate(161.81 37.94) scale(0.24)" xlink:href="SMURFITKAPPA l Layout24.png"/><g class="cls-4"><image id="Layer_0_Imagen-26" data-name="Layer 0 Imagen" width="2006" height="1080" transform="translate(0 0.19) scale(0.24)" xlink:href="SMURFITKAPPA l Layout25.png"/></g><g class="cls-5"><image id="Layer_0_Imagen-27" data-name="Layer 0 Imagen" width="2282" height="1080" transform="translate(26.77) scale(0.24)" xlink:href="SMURFITKAPPA l Layout26.png"/></g><image id="Layer_0_Imagen-28" data-name="Layer 0 Imagen" width="138" height="72" transform="translate(264.65 203.12) scale(0.24)" xlink:href="SMURFITKAPPA l Layout27.png"/><image id="Layer_0_Imagen-29" data-name="Layer 0 Imagen" width="67" height="127" transform="translate(296.48 183.14) scale(0.24)" xlink:href="SMURFITKAPPA l Layout28.png"/><image id="Layer_0_Imagen-30" data-name="Layer 0 Imagen" width="67" height="127" transform="translate(407.65 191.98) scale(0.24)" xlink:href="SMURFITKAPPA l Layout29.png"/><image id="Layer_0_Imagen-31" data-name="Layer 0 Imagen" width="232" height="68" transform="translate(356.65 70.87) scale(0.24)" xlink:href="SMURFITKAPPA l Layout30.png"/><image id="Layer_0_Imagen-32" data-name="Layer 0 Imagen" width="360" height="424" transform="translate(429.53 86.87) scale(0.24)" xlink:href="SMURFITKAPPA l Layout31.png"/><image id="Layer_0_Imagen-33" data-name="Layer 0 Imagen" width="87" height="194" transform="translate(503.01 116.81) scale(0.24)" xlink:href="SMURFITKAPPA l Layout32.png"/><g class="cls-6"><image id="Layer_0_Imagen-34" data-name="Layer 0 Imagen" width="467" height="237" transform="translate(441.66 126.68) scale(0.24)" xlink:href="SMURFITKAPPA l Layout33.png"/></g><g class="cls-7"><image id="Layer_0_Imagen-35" data-name="Layer 0 Imagen" width="467" height="237" transform="translate(441.65 127.19) scale(0.24)" xlink:href="SMURFITKAPPA l Layout34.png"/></g><image id="Layer_0_Imagen-36" data-name="Layer 0 Imagen" width="362" height="102" transform="translate(88.54 137.92) scale(0.24)" xlink:href="SMURFITKAPPA l Layout35.png"/><image id="Layer_0_Imagen-37" data-name="Layer 0 Imagen" width="1581" height="26" transform="translate(82.85 234.19) scale(0.24)" xlink:href="SMURFITKAPPA l Layout36.png"/></svg>